<?xml version="1.0" encoding="UTF-8" standalone="no"?>
<svg
   xmlns:dc="http://purl.org/dc/elements/1.1/"
   xmlns:cc="http://creativecommons.org/ns#"
   xmlns:rdf="http://www.w3.org/1999/02/22-rdf-syntax-ns#"
   xmlns:svg="http://www.w3.org/2000/svg"
   xmlns="http://www.w3.org/2000/svg"
   viewBox="0 0 640.9375 491.66251"
   height="491.66251"
   width="640.9375"
   xml:space="preserve"
   version="1.1"
   id="svg2"><metadata
     id="metadata8"><rdf:RDF><cc:Work
         rdf:about=""><dc:format>image/svg+xml</dc:format><dc:type
           rdf:resource="http://purl.org/dc/dcmitype/StillImage" /></cc:Work></rdf:RDF></metadata><defs
     id="defs6" /><g
     transform="matrix(1.25,0,0,-1.25,0,491.6625)"
     id="g10"><g
       transform="scale(0.1,0.1)"
       id="g12"><path
         id="path14"
         style="fill:#171717;fill-opacity:1;fill-rule:nonzero;stroke:none"
         d="m 2185.68,1363.73 c 138.1,0.2 276.3,-0.3 414.4,0.3 -110.7,-309.3 -221.2,-618.698 -332,-927.999 303.9,379.899 606.7,760.799 908.2,1142.699 -150,0.8 -300,0 -450,0.4 160,264.5 321.6,528 480.6,793.1 -172.7,0.8 -345.4,0.1 -518.1,0.3 -167.7,-336.2 -335.4,-672.5 -503.1,-1008.8 l 0,0 z m -351.8,1525.7 c 38.5,39.9 94.1,60.3 149.2,58.6 716.9,0.2 1433.9,0.4 2150.8,-0.1 103,4.8 197.4,-84.5 198.4,-187.5 2.1,-331.1 0,-662.3 1,-993.4 67.3,0 134.7,-0.4 202,0.2 2.2,142.9 -4.3,286.3 3.5,428.9 16.3,119.1 144.5,179.8 254.7,161.5 150,30 350.3,-37.7 330,-224.8 l 0,-1287.498 c 27.7,-137.301 -90.2,-274.801 -230,-254.203 -129.7,-8.797 -316.7,-13.297 -351.7,148.402 -13.9,146.5 -2.2,294.899 -6.3,442.199 -67.4,0.3 -134.7,0.1 -202,0.1 -9.7,-111.7 31.4,-246.299 -56.7,-335.799 -249.2,-250.601 -499.8,-499.902 -749.5,-750.1013 -44.7,-50.0977 -102.5,-96.597669 -173.4,-95.199231 -457,-1.398438 -914,-0.300781 -1371,-0.601563 -55.2,-1.097656 -110.8,19.499994 -149.3,59.703094 -177.5,176.898 -354.3,354.5 -531.8,531.496 -169.2,16.602 -445.702,-71.398 -503.202,154.902 -10.797,144.7 -1.598,290.5 -4.898,435.6 -67.399,0.1 -134.801,0.2 -202.2,-0.1 -6.902,-152.7 13.598,-308.398 -11.3,-459.199 C 530.078,564.629 342.98,589.23 213.18,591.328 91.6797,581.629 -9.62109,697.531 3.48047,816.832 l 0,1287.198 c -22.90237,122.7 69.89843,257.9 199.39853,253.2 132.402,1 324.5,30.8 377.199,-130.4 25,-150.9 4.5,-306.7 11.301,-459.6 67.402,-0.6 134.801,-0.2 202.101,-0.3 0.598,131.2 -0.402,262.4 0.5,393.6 -1.601,94.5 73.7,186.3 168.801,196 112.799,2 225.799,-0.5 338.699,-0.2 177.7,177.5 354.6,355.8 532.4,533.1 m 141.7,820.3 c -14.8,114.2 80.7,228.31 197.9,222.81 466.7,-0.91 933.6,3.39 1400.2,-2.11 146,-14.39 188.8,-177.5 168.3,-300.7 18,-112.7 -25.4,-252.3 -151.3,-276.5 -145.9,-11.3 -293.1,-2.1 -439.5,-5 0.3,-66.5 0.1,-132.9 0.1,-199.3 -195,-1.3 -390,-1.2 -585,-0.09 0.1,66.49 -0.1,132.89 0.1,199.39 -153.8,6.81 -311.1,-14.6 -462.6,12.11 -148.4,49.19 -132.1,224.7 -128.2,349.39" /></g></g></svg>