<?xml version="1.0" encoding="UTF-8" standalone="no"?>
<svg
   xmlns:dc="http://purl.org/dc/elements/1.1/"
   xmlns:cc="http://creativecommons.org/ns#"
   xmlns:rdf="http://www.w3.org/1999/02/22-rdf-syntax-ns#"
   xmlns:svg="http://www.w3.org/2000/svg"
   xmlns="http://www.w3.org/2000/svg"
   viewBox="0 0 443.75 443.75"
   height="443.75"
   width="443.75"
   xml:space="preserve"
   version="1.1"
   id="svg2"><metadata
     id="metadata8"><rdf:RDF><cc:Work
         rdf:about=""><dc:format>image/svg+xml</dc:format><dc:type
           rdf:resource="http://purl.org/dc/dcmitype/StillImage" /></cc:Work></rdf:RDF></metadata><defs
     id="defs6" /><g
     transform="matrix(1.25,0,0,-1.25,0,443.75)"
     id="g10"><g
       transform="scale(0.1,0.1)"
       id="g12"><path
         id="path14"
         style="fill:#171717;fill-opacity:1;fill-rule:nonzero;stroke:none"
         d="m 1653.4,2565 c 46.3,5.9 93,10.6 139.8,7.8 34.5,-8.4 62.1,-37.5 70.4,-71.9 7.3,-43.1 -21.6,-89.3 -63.9,-100.8 -20.4,-6.1 -42,-4.1 -63,-5.4 C 1511,2384 1299.2,2237 1208.4,2030.4 c -30.3,-70.7 -51.5,-146.4 -53.3,-223.7 -1.3,-21.7 1.1,-44.6 -8.1,-65 -17.8,-45.4 -78.3,-72.3 -121.7,-45.9 -24.9,11.6 -41.999,35.8 -48.3,62 -10,270.3 133,538 359.3,684.8 95.2,63.2 204.4,104 317.1,122.4 l 0,0 z m 10.2,180 c -300.8,-32.6 -581.1,-214.9 -731.299,-477.8 -175.199,-292 -177.602,-677 -7.403,-971.7 C 1043.5,1083.2 1244.9,919 1476.7,845.5 c 303.5,-99.699 654.2,-36.898 903.2,163.7 168.6,132.1 291,321.8 342.3,529.7 36.6,146.9 38.9,302.4 4.9,450 -64.3,298.2 -279.1,558.6 -558.9,679.6 -157.4,69.9 -333.6,96 -504.6,76.5 m 26.3,805 147.3,0 c 98.3,-5.4 196.7,-15.1 293.1,-36.2 -0.9,-151.8 0.3,-303.6 -1.2,-455.5 104.6,-31 206.8,-71 301.6,-125.5 107.4,108 215.6,215.4 322.9,323.5 198.8,-131.5 370.1,-303.5 502.4,-501.7 -107.8,-107.9 -215.3,-216 -323.7,-323.3 54.8,-94.9 94.9,-197.3 125.6,-302.2 152.2,1.5 304.3,2.2 456.5,-0.2 19,-88.3 27.3,-178.2 35.6,-268 l 0,-145.9 c -5.1,-98.7 -15.5,-197.2 -35.7,-294.1 -152.1,-0.9 -304.2,-1.8 -456.3,0.3 -30.3,-105 -71.4,-206.9 -125.6,-301.9 107.9,-107.8 215.9,-215.499 323.4,-323.601 -132,-198.097 -303.1,-370.097 -501.8,-501.398 -107.9,107.597 -215.6,215.5 -323.3,323.301 -94.7,-54.704 -197,-95 -301.9,-125.403 2.7,-152 0.3,-304 0.8,-455.9998 C 2040.6,16.3008 1949.8,8.19922 1859.1,0 l -144.3,0 c -99,5.60156 -198.2,14.6992 -295.1,36.3984 0.3,151.9996 -0.5,303.9026 0.9,455.9026 -105,30.398 -207,71.199 -302.2,125.199 C 1011.7,509.102 903.301,402.301 796.102,294.301 596.801,425 426.602,598 293.5,795.301 401,903.699 509.102,1011.5 617.199,1119.3 c -54.597,94.7 -94.301,197 -125.5,301.6 C 339.5,1420.3 187.398,1419 35.3008,1421 17,1509.2 7.89844,1598.9 0,1688.5 l 0,148.3 c 5.19922,98 15.3008,195.9 35.5,292.1 152.199,2.3 304.301,1.7 456.5,0.2 30.602,105 70.801,207.3 125.5,302.2 -108.5,107 -215.602,215.5 -323.602,323 132.102,198.2 303.301,370.5 502.403,501.6 107,-108.2 215.599,-214.8 322.299,-323.3 94.9,54 196.6,95.1 301.6,124.9 0,152.3 -1.4,304.5 0.3,456.8 88.7,19.2 179.1,27.7 269.4,35.7" /></g></g></svg>