<?xml version="1.0" encoding="UTF-8"?>
<!DOCTYPE svg PUBLIC "-//W3C//DTD SVG 1.1//EN" "http://www.w3.org/Graphics/SVG/1.1/DTD/svg11.dtd">
<!-- Creator: CorelDRAW X6 -->
<svg xmlns="http://www.w3.org/2000/svg" xml:space="preserve" width="8.26777in" height="11.6929in" version="1.1" style="shape-rendering:geometricPrecision; text-rendering:geometricPrecision; image-rendering:optimizeQuality; fill-rule:evenodd; clip-rule:evenodd"
viewBox="0 0 8268 11693"
 xmlns:xlink="http://www.w3.org/1999/xlink">
 <defs>
  <style type="text/css">
   <![CDATA[
    .fil1 {fill:#7CC24D}
    .fil0 {fill:#FEFEFE}
   ]]>
  </style>
 </defs>
 <g id="ﾃ神x00a1_ﾃ神x00bb_ﾃ神x00be_ﾃ神x00b9__x0020_1">
  <metadata id="CorelCorpID_0Corel-Layer"/>
  <g id="_276099768">
   <path class="fil0" d="M2812 5731l-243 0 0 243 243 0 0 -243zm-243 547l0 0 -122 0 0 -669 487 0 0 487 -365 0 0 182z"/>
   <polygon class="fil0" points="2999,6097 2999,5610 2999,5609 3121,5609 3121,5975 3365,5975 3365,5610 3486,5610 3486,6096 "/>
   <polygon class="fil0" points="3675,6096 3553,6097 3553,5610 4040,5610 4040,5731 3675,5731 "/>
   <path class="fil0" d="M4454 5717l-243 0 0 90 243 0 0 -90zm-365 380l0 0 0 -488 487 0 0 306 -365 0 0 60 242 0 0 122 -364 0z"/>
   <polygon class="fil0" points="4757,6096 4757,5366 4635,5366 4635,6096 "/>
   <path class="fil0" d="M5187 5731l-243 0 0 244 243 0 0 -244zm-364 -121l0 0 486 0 0 487 -484 0 0 -487 -2 0z"/>
   <path class="fil0" d="M6053 5427l-122 0 0 122 122 0 0 -122zm0 669l0 0 -122 0 0 -486 122 0 0 491 0 -5z"/>
   <polygon class="fil0" points="6122,6100 6122,5610 6122,5610 6608,5610 6608,5731 6244,5731 6244,5975 6608,5975 6608,6096 "/>
   <path class="fil0" d="M5503 5734l241 0 0 241 -241 0 0 -241zm-125 362l0 0 366 0 0 62 -242 0 0 121 364 0 0 -670 -487 0 0 487 0 0z"/>
   <path class="fil1" d="M1921 6039c0,30 -24,55 -55,55 -30,0 -55,-24 -55,-55 0,-30 24,-55 55,-55 30,0 55,24 55,55z"/>
   <path class="fil1" d="M2106 5854c0,30 -24,55 -55,55 -30,0 -55,-24 -55,-55 0,-30 24,-55 55,-55 30,0 55,24 55,55z"/>
   <path class="fil1" d="M2292 5668c0,30 -24,55 -55,55 -30,0 -55,-24 -55,-55 0,-30 24,-55 55,-55 30,0 55,24 55,55z"/>
   <path class="fil1" d="M2107 6039c0,30 -24,55 -55,55 -30,0 -55,-24 -55,-55 0,-30 24,-55 55,-55 30,0 55,24 55,55z"/>
   <path class="fil1" d="M1736 6225c0,30 -24,55 -55,55 -30,0 -55,-24 -55,-55 0,-30 24,-55 55,-55 30,0 55,24 55,55z"/>
   <path class="fil0" d="M1736 5668c0,30 -24,55 -55,55 -30,0 -55,-24 -55,-55 0,-30 24,-55 55,-55 30,0 55,24 55,55z"/>
   <path class="fil0" d="M1921 5668c0,30 -24,55 -55,55 -30,0 -55,-24 -55,-55 0,-30 24,-55 55,-55 30,0 55,24 55,55z"/>
   <path class="fil0" d="M2106 5668c0,30 -24,55 -55,55 -30,0 -55,-24 -55,-55 0,-30 24,-55 55,-55 30,0 55,24 55,55z"/>
   <path class="fil0" d="M1921 5854c0,30 -24,55 -55,55 -30,0 -55,-24 -55,-55 0,-30 24,-55 55,-55 30,0 55,24 55,55z"/>
   <path class="fil0" d="M1736 5854c0,30 -24,55 -55,55 -30,0 -55,-24 -55,-55 0,-30 24,-55 55,-55 30,0 55,24 55,55z"/>
   <path class="fil0" d="M1736 6039c0,30 -24,55 -55,55 -30,0 -55,-24 -55,-55 0,-30 24,-55 55,-55 30,0 55,24 55,55z"/>
   <path class="fil0" d="M2292 5854c0,30 -24,55 -55,55 -30,0 -55,-24 -55,-55 0,-30 24,-55 55,-55 30,0 55,24 55,55z"/>
   <path class="fil0" d="M2292 6039c0,30 -24,55 -55,55 -30,0 -55,-24 -55,-55 0,-30 24,-55 55,-55 30,0 55,24 55,55z"/>
   <path class="fil0" d="M1921 6225c0,30 -24,55 -55,55 -30,0 -55,-24 -55,-55 0,-30 24,-55 55,-55 30,0 55,24 55,55z"/>
   <path class="fil0" d="M2106 6225c0,30 -24,55 -55,55 -30,0 -55,-24 -55,-55 0,-30 24,-55 55,-55 30,0 55,24 55,55z"/>
   <path class="fil0" d="M2292 6225c0,30 -24,55 -55,55 -30,0 -55,-24 -55,-55 0,-30 24,-55 55,-55 30,0 55,24 55,55z"/>
   <polygon class="fil1" points="2070,6039 2035,6039 2035,5854 2070,5854 "/>
   <polygon class="fil1" points="1876,6057 1876,6022 2062,6022 2062,6057 "/>
   <polygon class="fil1" points="2090,5842 2065,5817 2196,5686 2221,5710 "/>
   <polygon class="fil1" points="1716,6215 1691,6190 1866,6016 1890,6041 "/>
   <path class="fil0" d="M2719 6177c-2,-2 -5,-4 -7,-6 -3,-1 -5,-3 -8,-3 -3,-1 -6,-1 -10,-1 -4,0 -7,1 -11,2 -3,1 -7,2 -9,4 -3,2 -5,4 -7,6l0 -10 -26 0 0 107 27 0 0 -64c0,-3 1,-6 2,-9 1,-3 2,-5 4,-6 2,-2 4,-3 6,-4 2,-1 4,-1 6,-1 2,0 4,0 6,1 2,0 3,1 4,2 1,1 3,2 4,3l20 -20zm123 53l0 0 0 -12c0,-7 -1,-14 -3,-20 -2,-6 -5,-12 -9,-16 -4,-5 -9,-8 -15,-11 -6,-3 -12,-4 -20,-4 -7,0 -13,1 -19,4 -6,2 -11,6 -15,11 -4,5 -7,10 -10,17 -2,7 -3,15 -3,23 0,9 1,16 3,22 2,6 4,11 7,16 3,4 7,8 11,10 4,2 9,4 13,5 5,1 10,2 15,2 6,0 12,-1 17,-2 5,-1 9,-3 13,-6 4,-3 8,-6 11,-9l-16 -16c-2,2 -4,4 -7,6 -2,1 -5,3 -8,3 -3,1 -6,1 -10,1 -5,0 -9,-1 -13,-3 -3,-2 -6,-5 -8,-8 -2,-4 -3,-8 -3,-12l67 0zm-26 -18l0 0 -41 0c0,-2 0,-3 0,-4 0,-1 0,-2 1,-4 0,-1 1,-2 1,-4 1,-2 2,-4 4,-6 2,-2 4,-3 6,-4 2,-1 5,-1 8,-1 3,0 6,1 8,1 2,1 4,2 6,4 2,2 3,4 4,6 1,1 1,3 1,4 0,1 1,2 1,4 0,1 0,3 0,4zm158 30l0 0c0,-9 -3,-16 -8,-22 -5,-5 -13,-9 -24,-10l-17 -2c-3,0 -5,-1 -7,-2 -2,-1 -3,-2 -3,-3 -1,-1 -1,-3 -1,-4 0,-2 1,-3 2,-5 1,-2 3,-3 5,-4 2,-1 5,-1 9,-1 3,0 6,0 9,1 3,0 6,1 9,2 3,1 5,3 7,4l16 -17c-3,-3 -7,-6 -11,-8 -4,-2 -9,-3 -14,-4 -5,-1 -10,-1 -16,-1 -5,0 -11,1 -16,2 -5,1 -9,4 -13,7 -4,3 -7,6 -9,11 -2,4 -3,9 -3,15 0,7 1,12 4,16 3,4 6,7 11,10 5,2 10,4 17,4l17 2c4,0 7,2 9,3 2,2 3,4 2,7 0,2 -1,4 -2,5 -1,1 -3,3 -4,3 -2,1 -4,2 -6,2 -2,0 -5,1 -7,1 -3,0 -6,0 -9,-1 -3,0 -7,-1 -10,-3 -3,-1 -7,-4 -10,-7l-17 17c3,3 7,6 10,8 4,2 7,4 11,5 4,1 8,2 12,2 4,0 8,1 12,1 6,0 12,-1 18,-2 5,-1 10,-4 14,-6 4,-3 7,-7 10,-11 2,-4 3,-10 4,-15zm137 -12l0 0 0 -12c0,-7 -1,-14 -3,-20 -2,-6 -5,-12 -9,-16 -4,-5 -9,-8 -15,-11 -6,-3 -12,-4 -20,-4 -7,0 -13,1 -19,4 -6,2 -11,6 -15,11 -4,5 -7,10 -10,17 -2,7 -3,15 -3,23 0,9 1,16 3,22 2,6 4,11 7,16 3,4 7,8 11,10 4,2 9,4 13,5 5,1 10,2 15,2 6,0 12,-1 17,-2 5,-1 9,-3 13,-6 4,-3 8,-6 11,-9l-16 -16c-2,2 -4,4 -7,6 -2,1 -5,3 -8,3 -3,1 -6,1 -10,1 -5,0 -9,-1 -13,-3 -3,-2 -6,-5 -8,-8 -2,-4 -3,-8 -3,-12l67 0zm-26 -18l0 0 -41 0c0,-2 0,-3 0,-4 0,-1 0,-2 1,-4 0,-1 1,-2 1,-4 1,-2 2,-4 4,-6 2,-2 4,-3 6,-4 2,-1 5,-1 8,-1 3,0 6,1 8,1 2,1 4,2 6,4 2,2 3,4 4,6 1,1 1,3 1,4 0,1 1,2 1,4 0,1 0,3 0,4zm158 63l0 0 0 -70c0,-13 -4,-22 -12,-28 -8,-6 -19,-9 -34,-9 -6,0 -11,0 -16,1 -5,1 -9,2 -12,5 -4,2 -7,5 -11,9l17 17c2,-2 4,-4 6,-5 2,-1 4,-2 6,-3 2,-1 5,-1 9,-1 7,0 12,1 15,4 3,3 5,7 5,13l0 5 -25 0c-6,0 -12,1 -16,2 -5,2 -8,4 -11,7 -3,3 -5,6 -7,10 -1,4 -2,8 -2,12 0,5 1,9 2,13 2,4 4,8 7,11 3,3 7,6 11,7 4,2 10,2 16,2 4,0 8,0 11,-1 3,-1 6,-2 8,-3 2,-2 5,-3 7,-6l0 9 26 0zm-27 -39l0 0c0,3 0,6 -1,8 -1,2 -2,4 -3,5 -2,1 -3,3 -5,3 -2,1 -3,1 -5,1 -2,0 -4,0 -7,0 -5,0 -9,-1 -12,-3 -3,-2 -4,-5 -4,-9 0,-4 1,-7 4,-9 3,-2 6,-3 11,-3l21 0 0 6zm160 -59l0 0c-2,-2 -5,-4 -7,-6 -3,-1 -5,-3 -8,-3 -3,-1 -6,-1 -10,-1 -4,0 -7,1 -11,2 -3,1 -7,2 -9,4 -3,2 -5,4 -7,6l0 -10 -26 0 0 107 27 0 0 -64c0,-3 1,-6 2,-9 1,-3 2,-5 4,-6 2,-2 4,-3 6,-4 2,-1 4,-1 6,-1 2,0 4,0 6,1 2,0 3,1 4,2 1,1 3,2 4,3l20 -20zm113 85l0 0 -18 -18c-2,2 -4,4 -5,5 -2,1 -4,2 -6,3 -2,1 -4,1 -6,1 -3,0 -6,-1 -9,-2 -2,-1 -5,-3 -7,-5 -2,-3 -4,-6 -5,-10 -1,-4 -1,-9 -1,-14 0,-6 0,-10 1,-14 1,-4 2,-7 5,-9 2,-2 4,-4 7,-5 3,-1 5,-2 9,-2 2,0 4,0 6,1 2,1 4,1 6,3 2,1 4,3 5,5l18 -18c-5,-5 -10,-9 -16,-11 -6,-2 -12,-4 -20,-3 -4,0 -9,0 -13,2 -4,1 -9,3 -13,5 -4,2 -8,6 -11,10 -3,4 -6,9 -8,16 -2,6 -3,14 -3,22 0,9 1,16 3,22 2,6 4,11 8,16 3,4 7,8 11,10 4,2 8,4 13,5 4,1 9,2 13,2 7,0 14,-1 20,-4 6,-2 11,-6 16,-11zm135 13l0 0 0 -69c0,-6 -1,-11 -2,-16 -2,-5 -4,-9 -7,-12 -3,-4 -7,-6 -11,-8 -4,-2 -10,-3 -15,-3 -5,0 -9,1 -14,3 -4,2 -8,5 -12,8l0 -49 -27 0 0 146 27 0 0 -65c0,-3 1,-6 2,-9 1,-2 2,-4 4,-6 2,-1 3,-3 6,-3 2,-1 4,-1 6,-1 2,0 4,0 6,1 2,1 4,2 6,3 2,1 3,3 4,6 1,2 2,5 2,9l0 65 27 0zm231 0l0 0 -26 -31c5,-6 9,-12 11,-20 2,-8 4,-16 4,-25l-25 0c0,5 -1,10 -2,14 -1,4 -3,8 -5,11l-25 -29c1,-1 2,-1 3,-2 1,-1 2,-2 3,-3 1,-1 2,-2 3,-2 1,-1 1,-1 1,-1 3,-2 6,-5 8,-7 2,-3 4,-5 5,-8 1,-3 2,-6 2,-10 0,-7 -2,-13 -5,-18 -3,-5 -7,-9 -13,-12 -6,-3 -12,-4 -20,-5 -8,0 -15,2 -21,4 -6,3 -10,7 -13,12 -3,5 -5,11 -5,18 0,3 1,7 1,10 1,3 2,6 4,8 1,3 3,5 5,7 2,2 3,4 5,6 -3,2 -6,4 -9,7 -3,3 -6,6 -8,9 -3,3 -5,7 -6,11 -2,4 -2,8 -2,13 0,9 2,17 5,24 4,7 9,12 16,15 7,4 16,5 27,5 5,0 10,-1 14,-1 4,-1 7,-2 10,-4 3,-1 6,-3 8,-5 2,-2 4,-3 6,-4l11 13 34 0zm-61 -32l0 0c-3,3 -7,5 -10,7 -3,1 -7,2 -12,2 -4,0 -8,-1 -11,-3 -3,-2 -6,-4 -8,-7 -2,-3 -3,-7 -3,-11 0,-3 1,-7 2,-9 1,-3 3,-5 5,-7 2,-2 5,-4 8,-6l29 34zm-7 -81l0 0c0,3 -1,5 -2,7 -2,2 -4,4 -6,5 0,0 0,0 -1,1 -1,1 -2,1 -3,2 -1,1 -2,1 -3,2 -2,-2 -3,-4 -5,-6 -1,-2 -3,-4 -3,-5 -1,-2 -1,-4 -1,-5 0,-2 0,-4 1,-6 1,-2 2,-3 4,-4 2,-1 4,-2 7,-2 3,0 5,1 7,2 2,1 3,2 4,4 1,2 1,4 1,6zm247 113l0 0 0 -146 -27 0 0 49c-3,-4 -7,-7 -12,-8 -4,-2 -9,-2 -15,-2 -4,0 -7,0 -10,1 -3,1 -6,2 -9,3 -3,1 -5,3 -7,5 -3,3 -5,6 -6,9 -2,3 -3,7 -3,11 -1,4 -1,8 -1,12 0,4 0,8 0,12 0,4 0,8 0,12 0,4 1,8 1,12 1,4 2,8 3,11 1,4 4,7 6,9 2,2 4,4 7,5 3,1 6,3 9,3 3,1 7,1 10,1 4,0 7,0 10,-1 3,-1 6,-2 9,-4 3,-2 5,-4 8,-7l0 10 26 0zm-27 -54l0 0c0,4 0,8 -1,12 0,4 -1,7 -3,10 -1,3 -3,5 -6,7 -2,2 -6,2 -10,2 -4,0 -7,-1 -10,-2 -2,-2 -4,-4 -5,-7 -1,-3 -2,-6 -2,-10 0,-4 -1,-8 -1,-12 0,-4 0,-8 1,-12 0,-4 1,-7 2,-10 1,-3 3,-5 5,-6 2,-2 6,-2 10,-2 4,0 7,1 10,2 2,1 4,4 6,6 1,3 2,6 3,10 0,4 1,8 1,12zm171 8l0 0 0 -12c0,-7 -1,-14 -3,-20 -2,-6 -5,-12 -9,-16 -4,-5 -9,-8 -15,-11 -6,-3 -12,-4 -20,-4 -7,0 -13,1 -19,4 -6,2 -11,6 -15,11 -4,5 -7,10 -10,17 -2,7 -3,15 -3,23 0,9 1,16 3,22 2,6 4,11 7,16 3,4 7,8 11,10 4,2 9,4 13,5 5,1 10,2 15,2 6,0 12,-1 17,-2 5,-1 9,-3 13,-6 4,-3 8,-6 11,-9l-16 -16c-2,2 -4,4 -7,6 -2,1 -5,3 -8,3 -3,1 -6,1 -10,1 -5,0 -9,-1 -13,-3 -3,-2 -6,-5 -8,-8 -2,-4 -3,-8 -3,-12l67 0zm-26 -18l0 0 -41 0c0,-2 0,-3 0,-4 0,-1 0,-2 1,-4 0,-1 1,-2 1,-4 1,-2 2,-4 4,-6 2,-2 4,-3 6,-4 2,-1 5,-1 8,-1 3,0 6,1 8,1 2,1 4,2 6,4 2,2 3,4 4,6 1,1 1,3 1,4 0,1 1,2 1,4 0,1 0,3 0,4zm161 -44l0 0 -28 0 -22 66 -22 -66 -28 0 39 107 21 0 39 -107zm128 62l0 0 0 -12c0,-7 -1,-14 -3,-20 -2,-6 -5,-12 -9,-16 -4,-5 -9,-8 -15,-11 -6,-3 -12,-4 -20,-4 -7,0 -13,1 -19,4 -6,2 -11,6 -15,11 -4,5 -7,10 -10,17 -2,7 -3,15 -3,23 0,9 1,16 3,22 2,6 4,11 7,16 3,4 7,8 11,10 4,2 9,4 13,5 5,1 10,2 15,2 6,0 12,-1 17,-2 5,-1 9,-3 13,-6 4,-3 8,-6 11,-9l-16 -16c-2,2 -4,4 -7,6 -2,1 -5,3 -8,3 -3,1 -6,1 -10,1 -5,0 -9,-1 -13,-3 -3,-2 -6,-5 -8,-8 -2,-4 -3,-8 -3,-12l67 0zm-26 -18l0 0 -41 0c0,-2 0,-3 0,-4 0,-1 0,-2 1,-4 0,-1 1,-2 1,-4 1,-2 2,-4 4,-6 2,-2 4,-3 6,-4 2,-1 5,-1 8,-1 3,0 6,1 8,1 2,1 4,2 6,4 2,2 3,4 4,6 1,1 1,3 1,4 0,1 1,2 1,4 0,1 0,3 0,4zm123 63l0 0 0 -23 -10 0c-3,0 -6,-1 -7,-2 -2,-2 -2,-4 -2,-7l0 -114 -27 0 0 116c0,4 1,8 2,11 1,4 3,7 6,10 3,3 6,5 10,7 4,2 9,3 14,3l15 0zm130 -54l0 0c0,-6 0,-12 -1,-17 -1,-5 -2,-9 -4,-13 -2,-4 -4,-8 -7,-11 -2,-2 -5,-5 -8,-7 -3,-2 -7,-4 -11,-5 -4,-1 -9,-2 -14,-2 -5,0 -10,1 -14,2 -4,1 -8,3 -11,5 -3,2 -6,4 -8,7 -3,3 -6,7 -7,11 -2,4 -3,8 -4,13 -1,5 -1,11 -1,17 0,6 0,12 1,17 1,5 2,10 4,13 2,4 4,8 7,11 2,2 5,5 8,7 3,2 7,4 11,5 4,1 9,2 14,2 5,0 10,-1 14,-2 4,-1 8,-3 11,-5 3,-2 6,-4 8,-7 3,-3 6,-7 7,-11 2,-4 3,-8 4,-13 1,-5 1,-11 1,-17zm-27 0l0 0c0,4 0,7 0,10 0,3 -1,6 -2,9 -1,3 -2,5 -4,7 -2,2 -3,3 -5,4 -2,1 -4,1 -7,1 -3,0 -5,0 -7,-1 -2,-1 -4,-2 -5,-4 -2,-2 -3,-4 -4,-7 -1,-3 -1,-6 -2,-9 0,-3 0,-7 0,-10 0,-4 0,-7 0,-10 0,-3 1,-6 2,-9 1,-3 2,-5 4,-7 2,-2 3,-3 5,-4 2,-1 4,-1 7,-1 3,0 5,0 7,1 2,1 4,2 5,4 2,2 3,4 4,7 1,3 1,6 2,9 0,3 0,7 0,10zm168 0l0 0c0,-4 0,-8 0,-12 0,-4 -1,-8 -1,-12 -1,-4 -2,-8 -3,-11 -1,-4 -4,-7 -6,-9 -2,-2 -4,-4 -7,-5 -3,-1 -6,-3 -9,-3 -3,-1 -7,-1 -10,-1 -6,0 -11,1 -15,3 -4,2 -8,5 -12,9l0 -10 -26 0 0 146 27 0 0 -49c3,4 7,7 11,8 4,2 9,2 14,2 4,0 7,0 10,-1 3,-1 6,-2 9,-3 3,-1 5,-3 7,-5 3,-3 5,-6 6,-9 2,-4 3,-7 3,-11 1,-4 1,-8 1,-12 0,-4 0,-8 0,-12zm-27 0l0 0c0,4 0,8 -1,12 0,4 -1,7 -2,10 -1,3 -3,5 -5,7 -2,2 -6,2 -10,2 -4,0 -7,-1 -10,-2 -2,-2 -4,-4 -5,-7 -1,-3 -2,-6 -2,-10 0,-4 -1,-8 -1,-12 0,-4 0,-8 1,-12 0,-4 1,-7 2,-10 1,-3 3,-5 5,-6 2,-2 6,-2 10,-2 4,0 7,1 10,2 2,1 4,4 5,6 1,3 2,6 2,10 0,4 1,8 1,12zm230 54l0 0 0 -68c0,-6 -1,-11 -3,-16 -2,-5 -5,-10 -9,-14 -3,-3 -7,-5 -11,-7 -5,-2 -10,-2 -15,-2 -4,0 -8,0 -12,1 -4,1 -7,2 -10,4 -3,2 -6,5 -9,8 -3,-5 -7,-8 -12,-10 -5,-2 -10,-3 -16,-3 -3,0 -7,0 -10,1 -3,1 -6,2 -9,4 -3,2 -5,4 -8,6l0 -10 -26 0 0 107 27 0 0 -65c0,-4 1,-7 2,-9 1,-3 2,-5 4,-6 2,-2 4,-3 6,-3 2,-1 4,-1 6,-1 2,0 4,0 6,1 2,1 4,2 6,3 2,2 3,4 4,6 1,2 2,6 2,9l0 65 27 0 0 -65c0,-3 1,-6 2,-9 1,-2 2,-4 4,-6 2,-1 4,-3 6,-3 2,-1 4,-1 6,-1 2,0 4,0 6,1 2,1 4,2 6,3 2,2 3,4 4,6 1,2 2,6 2,9l0 65 27 0z"/>
   <path class="fil0" d="M5158 6230l0 -12c0,-7 -1,-14 -3,-20 -2,-6 -5,-12 -9,-16 -4,-5 -9,-8 -15,-11 -6,-3 -12,-4 -20,-4 -7,0 -13,1 -19,4 -6,2 -11,6 -15,11 -4,5 -7,10 -10,17 -2,7 -3,15 -3,23 0,9 1,16 3,22 2,6 4,11 7,16 3,4 7,8 11,10 4,2 9,4 13,5 5,1 10,2 15,2 6,0 12,-1 17,-2 5,-1 9,-3 13,-6 4,-3 8,-6 11,-9l-16 -16c-2,2 -4,4 -7,6 -2,1 -5,3 -8,3 -3,1 -6,1 -10,1 -5,0 -9,-1 -13,-3 -3,-2 -6,-5 -8,-8 -2,-4 -3,-8 -3,-12l67 0zm-26 -18l0 0 -41 0c0,-2 0,-3 0,-4 0,-1 0,-2 1,-4 0,-1 1,-2 1,-4 1,-2 2,-4 4,-6 2,-2 4,-3 6,-4 2,-1 5,-1 8,-1 3,0 6,1 8,1 2,1 4,2 6,4 2,2 3,4 4,6 1,1 1,3 1,4 0,1 1,2 1,4 0,1 0,3 0,4zm166 63l0 0 0 -68c0,-4 0,-8 -1,-11 -1,-4 -2,-7 -3,-10 -2,-3 -4,-6 -7,-9 -3,-3 -7,-5 -11,-7 -4,-2 -9,-2 -14,-2 -3,0 -7,0 -10,1 -3,1 -6,2 -9,4 -3,2 -5,4 -8,6l0 -10 -26 0 0 107 27 0 0 -65c0,-4 1,-7 2,-9 1,-3 2,-5 4,-6 2,-2 4,-3 6,-3 2,-1 4,-1 6,-1 2,0 4,0 6,1 2,1 4,2 6,3 2,2 3,4 4,6 1,2 2,6 2,9l0 65 27 0zm103 0l0 0 0 -23 -10 0c-3,0 -6,-1 -7,-2 -2,-2 -2,-4 -2,-7l0 -51 19 0 0 -20 -19 0 0 -32 -27 0 0 32 -11 0 0 20 11 0 0 53c0,4 1,8 2,11 1,4 3,7 6,10 2,3 6,5 10,7 4,2 9,3 14,3l15 0z"/>
  </g>
 </g>
</svg>
