<?xml version="1.0" encoding="UTF-8" standalone="no"?>
<svg
   xmlns:dc="http://purl.org/dc/elements/1.1/"
   xmlns:cc="http://creativecommons.org/ns#"
   xmlns:rdf="http://www.w3.org/1999/02/22-rdf-syntax-ns#"
   xmlns:svg="http://www.w3.org/2000/svg"
   xmlns="http://www.w3.org/2000/svg"
   viewBox="0 0 626.36249 657.02502"
   height="657.02502"
   width="626.36249"
   xml:space="preserve"
   version="1.1"
   id="svg2"><metadata
     id="metadata8"><rdf:RDF><cc:Work
         rdf:about=""><dc:format>image/svg+xml</dc:format><dc:type
           rdf:resource="http://purl.org/dc/dcmitype/StillImage" /></cc:Work></rdf:RDF></metadata><defs
     id="defs6" /><g
     transform="matrix(1.25,0,0,-1.25,0,657.025)"
     id="g10"><g
       transform="scale(0.1,0.1)"
       id="g12"><path
         id="path14"
         style="fill:#171717;fill-opacity:1;fill-rule:nonzero;stroke:none"
         d="m 1179.33,2919.5 c 0.06,-323.66 -0.17,-647.26 0.28,-970.92 982.46,0.22 1964.92,0.05 2947.38,0.05 -1.33,323.44 -3.22,646.93 -4.22,970.37 -304.96,1 -610.03,1 -914.99,-0.33 -0.72,-62.76 0.89,-126.79 -15.64,-187.94 -9.49,-36.73 -34.96,-70.03 -71.25,-83.4 -66.2,-25.02 -138.44,-19.97 -207.85,-22.97 0.27,-69.14 -0.17,-138.28 -0.17,-207.41 -69.08,-0.17 -138.16,-0.45 -207.19,-0.22 -0.67,-80.85 -0.39,-161.64 -0.83,-242.48 -34.57,-0.12 -69.14,-0.12 -103.65,-0.17 -0.28,80.96 0.22,161.91 -0.67,242.92 -69.19,-0.16 -138.39,-0.22 -207.58,-0.16 -0.05,69.3 -0.11,138.55 0.06,207.8 -68.64,1.99 -138.72,-3 -205.81,14.37 -37.23,9.15 -69.63,36.01 -82.84,72.35 -24.47,66.2 -22.19,138.28 -23.41,207.75 -300.52,1.28 -601.1,0.05 -901.62,0.39 l 0,0 z m -803.791,0.16 c 22.305,-114.41 64.145,-223.89 107.313,-331.81 68.027,-165.02 144.988,-326.6 234.156,-481.3 29.965,-50.05 59.816,-100.71 97.437,-145.54 1.11,319.55 0.332,639.05 0.61,958.6 -146.543,0.05 -293.028,0.28 -439.516,0.05 m 2832.241,346.91 c -0.11,-46.16 0.17,-92.27 0.28,-138.44 306.29,-0.11 612.53,-0.28 918.82,-0.22 0.11,46.22 0.11,92.44 0.05,138.72 -306.4,-0.06 -612.74,-0.34 -919.15,-0.06 m -2028.17,0.11 c -0.56,-46.22 -0.17,-92.44 -0.22,-138.66 299.07,0 598.15,-0.22 897.23,-0.06 3.44,46.11 5.27,92.28 3.94,138.5 -300.3,-0.06 -600.65,-0.06 -900.95,0.22 m -711.239,51.55 c 0,-63.48 -0.113,-126.96 0,-190.43 115.524,-0.17 231.106,0.16 346.629,0.05 0,46.11 0.109,92.22 -0.332,138.33 -54.047,1.28 -116.18,-4.3 -170.277,-3.6 -0.348,19.76 -4.59,37.1 -2.778,55.48 -56.207,1.5 -117.035,-0.11 -173.242,0.17 m 2739.689,295.03 c -0.11,-46.17 -0.28,-92.39 -0.16,-138.56 306.34,-0.38 612.69,-0.05 918.98,-0.16 0.05,46.22 0.11,92.44 0.05,138.66 -306.29,0.11 -612.58,0.06 -918.87,0.06 m -2028.73,-0.11 c 0,-46.17 -0.28,-92.34 0.28,-138.5 300.35,0.17 600.7,0 901.11,-0.11 0,46.16 0.06,92.27 -0.11,138.44 -300.41,0.17 -600.82,0.22 -901.28,0.17 M 468.371,3596 c -0.058,-57.71 -0.058,-115.47 0.055,-173.18 57.929,-0.05 115.855,-0.27 173.84,-0.22 -0.719,16.98 -1.164,33.96 -1.719,50.94 57.816,5.71 116.137,-0.44 174.176,1.39 0.109,46.05 0.277,92.11 0.277,138.16 -115.523,-5.38 -231.051,-11.6 -346.629,-17.09 M 1069.24,4959.83 C 835.031,4862.22 649.313,4668.07 538.395,4442.24 442.566,4249.25 394.07,4035.57 376.926,3821.67 c 567.859,-0.11 1135.774,-0.22 1703.684,-0.22 0.67,229.88 1.39,459.76 -2.27,689.59 1.5,49.33 0.44,102.21 25.97,146.27 19.75,31.79 54.43,50.55 74.29,82.45 l 0,0 c -103.48,180.95 -310.39,273.95 -510.37,297.47 -201.75,24.58 -410.27,-1.55 -598.99,-77.4 m -141.045,185.21 c 201.475,90.67 426.035,120.8 645.485,108.59 193.37,-10.65 389.69,-51.82 557.81,-151.53 136.78,-79.96 247.04,-208.36 292.42,-361.51 178.9,-0.27 357.84,-1.44 536.73,1.39 50.33,-0.39 102.38,-1.11 149.76,-20.25 42.84,-17.14 78.69,-55.21 86.57,-101.54 10.04,-54.32 11.98,-109.76 14.31,-164.8 6.99,-211.24 -1.16,-422.54 -3.22,-633.72 427.75,-0.17 855.45,-0.45 1283.21,-0.39 0,-578.29 0,-1156.64 -0.39,-1734.93 -0.5,-96.05 18.47,-190.87 46.27,-282.43 85.68,-287.09 176.95,-572.41 260.96,-859.998 49.61,-170.793 116.08,-336.25 163.36,-507.762 C 4999.36,296.551 5011.9,151.281 5010.85,7.01953 3438.78,-7.19141 1866.71,4.12891 294.695,6.78906 c 0.61,104.76994 6.379,209.97294 27.188,312.83994 22.75,112.641 61.926,220.953 96.383,330.32 54.988,177 107.644,354.731 162.187,531.901 35.902,128.4 83.512,259.18 70.746,394.57 -13.039,109.65 -67.304,207.97 -114.359,305.96 -166.352,332.98 -342.801,668.74 -415.82,1037.06 -40.3403,0.22 -80.6802,0.17 -121.02,0.39 0.222656,294.97 0.109375,589.94 0.0546875,884.91 33.5156125,20.7 73.7422125,16.76 111.3083125,17.21 40.617,356 154.313,715.01 386.137,994 116.469,140.16 264.012,254.85 430.695,329.09" /></g></g></svg>