<?xml version="1.0" encoding="UTF-8" standalone="no"?>
<svg
   xmlns:dc="http://purl.org/dc/elements/1.1/"
   xmlns:cc="http://creativecommons.org/ns#"
   xmlns:rdf="http://www.w3.org/1999/02/22-rdf-syntax-ns#"
   xmlns:svg="http://www.w3.org/2000/svg"
   xmlns="http://www.w3.org/2000/svg"
   viewBox="0 0 587.66248 630.54999"
   height="630.54999"
   width="587.66248"
   xml:space="preserve"
   version="1.1"
   id="svg2"><metadata
     id="metadata8"><rdf:RDF><cc:Work
         rdf:about=""><dc:format>image/svg+xml</dc:format><dc:type
           rdf:resource="http://purl.org/dc/dcmitype/StillImage" /></cc:Work></rdf:RDF></metadata><defs
     id="defs6" /><g
     transform="matrix(1.25,0,0,-1.25,0,630.55)"
     id="g10"><g
       transform="scale(0.1,0.1)"
       id="g12"><path
         id="path14"
         style="fill:#1c1c1b;fill-opacity:1;fill-rule:nonzero;stroke:none"
         d="m 980.926,5039.3 c 100.194,20 202.094,-20.9 278.594,-84.6 144.2,-119.5 242.8,-281.4 342.6,-437.4 99,-154.8 199.2,-313.4 247.7,-492.5 36.1,-131.1 26.5,-279.4 -49.19,-395.3 -77.61,-117.1 -195.51,-198.6 -299.41,-290.4 -111.9,-79.7 -243.4,-163.7 -269.4,-310.4 -39.4,-231.3 87.3,-447.6 205.6,-636.1 176.5,-263.9 386.7,-504.8 614.4,-725.6 129.8,-119.9 268,-235.7 429.9,-309.9 112.5,-51.7 248.2,-77 364.8,-23.4 114.11,49 181.61,158.7 274.4,235.7 104.2,87.6 201.1,194.2 335.5,234.5 138.61,44.2 289.5,9.9 414.3,-58.2 168.2,-87 308.5,-216.3 451.3,-338.6 122.71,-107 248.01,-217.4 329.5,-360.5 51.6,-89.998 69.3,-205.1 23,-300.901 -57.89,-122.797 -177.5,-196.5 -272.59,-287.398 C 4252.62,309.398 4074.62,190.102 3878.83,111.5 3505.92,-41.3984 3080.12,-28.1992 2701.33,97.3008 2115.22,294.102 1631.22,705 1212.62,1147.8 817.324,1576.4 452.426,2044.7 215.523,2581 48.4258,2960.3 -45.9766,3384.5 22.5234,3798.3 c 58.6016,384.8 285.0236,724.5 577.9026,981.6 125.57,110.23 206.242,222.84 380.5,259.4 l 0,0" /></g></g></svg>