<?xml version="1.0" encoding="UTF-8" standalone="no"?>
<svg
   xmlns:dc="http://purl.org/dc/elements/1.1/"
   xmlns:cc="http://creativecommons.org/ns#"
   xmlns:rdf="http://www.w3.org/1999/02/22-rdf-syntax-ns#"
   xmlns:svg="http://www.w3.org/2000/svg"
   xmlns="http://www.w3.org/2000/svg"
   viewBox="0 0 540.21252 633.21252"
   height="633.21252"
   width="540.21252"
   xml:space="preserve"
   version="1.1"
   id="svg2"><metadata
     id="metadata8"><rdf:RDF><cc:Work
         rdf:about=""><dc:format>image/svg+xml</dc:format><dc:type
           rdf:resource="http://purl.org/dc/dcmitype/StillImage" /></cc:Work></rdf:RDF></metadata><defs
     id="defs6" /><g
     transform="matrix(1.25,0,0,-1.25,0,633.2125)"
     id="g10"><g
       transform="scale(0.1,0.1)"
       id="g12"><path
         id="path14"
         style="fill:#1c1c1b;fill-opacity:1;fill-rule:nonzero;stroke:none"
         d="m 2065.2,5062.41 c 216.7,15.09 438.9,-20.8 635,-116.3 240.2,-114.71 430.8,-325.21 526.5,-573 80,-201.4 104.9,-421.31 94.2,-636.61 -7.6,-119.2 -24.7,-238 -55.9,-353.4 -73.1,-294.8 -209.5,-573.9 -397.7,-812.4 -27.7,-35.4 -60.6,-66.3 -88.3,-101.8 -28,-34.8 -39.6,-79 -48.3,-121.9 -15,-75.1 -20.1,-154.2 1.3,-228.6 14.9,-51.3 44.5,-100.2 89.9,-129.8 43.3,-27.9 93.6,-41.6 141.7,-59.2 99.6,-34.1 197.7,-72.6 293.8,-115.6 194.2,-80.4 381.3,-178.2 557.3,-293.1 128.5,-84.8 251.3,-180.8 352,-297.9 58.4,-69.2 109.2,-147.1 135.3,-234.402 19.9,-65.097 19.4,-133.898 19.7,-201.199 C 4321.5,722.5 4322.5,656.5 4303.9,593.898 4277.7,505 4219.5,427.898 4147.8,370.301 4067.1,305.898 3975.4,256.199 3879.7,218.102 3717.1,153.199 3545.7,113.801 3373.7,83.6992 3098.7,35 2819.4,19.8984 2540.8,6.5 2414.2,3.80078 2287.6,1.5 2160.9,0 1974.3,3.5 1787.4,2.89844 1601.1,16.8984 1328.8,29.6992 1056.6,58.3984 790,116.199 573.398,165.898 352,231.602 174.801,371.102 105.398,427.199 48,500.699 20.3984,586.199 0.199219,647.801 0.300781,713.199 0,777.301 0.300781,831.102 -0.398438,885.398 8.69922,938.699 21.1992,1009.6 52.8008,1075.9 92.8984,1135.3 157.699,1231.7 241.602,1313.6 331,1387 c 149.898,122.6 315.898,224.1 488.102,312 102.597,57.6 210.998,103.6 317.798,152.6 79.6,35.7 161.5,65.3 242.7,96.8 39.2,15.4 78.4,32.2 111.7,58.4 72.6,57.2 116.2,148.7 116.3,241 -0.2,53.9 -8.3,108.4 -27,159.1 -15.2,41.1 -45.9,73.3 -75.2,104.9 -54,56.9 -98.8,121.7 -143.7,185.9 -136.6,204.7 -239.3,432.5 -299,671.3 -56.9,209.9 -73.899,430.4 -51.4,646.6 16,146.6 51.9,292.01 115.7,425.4 76.6,165.11 196.1,310.41 344.7,415.71 173,123.49 382.4,190.7 593.5,205.7 l 0,0" /></g></g></svg>